<svg version="1.1" viewBox="0 0 5080 2880" xmlns="http://www.w3.org/2000/svg">
 <g>
  <path d="m2540.8 0h-2540.8v2880h2540.8z" fill="#ecebe9" stroke-width=".99985"/>
  <path d="m2540.8 0v2880h2539.2v-2880z" fill="#0d0d0d" stroke-width=".99956"/>
  <path d="m2540.8 272.21h-733.49c-18.296 0-33.025 14.73-33.025 33.025v2538.9c0 18.296 14.73 33.025 33.025 33.025h733.49v-2604.9z" fill="#fff"/>
  <path d="m2540.8 272.21v2604.9h772.44c18.296 0 33.025-14.73 33.025-33.025v-2538.9c0-18.296-14.73-33.025-33.025-33.025h-772.44z" fill="#181716"/>
  <path d="m2540.8 0h-2540.8v195.23h2540.8z" fill="#fff" stroke-width="1.0028"/>
  <path d="m2540.8 0v195.23h2539.2v-195.23z" fill="#181716" stroke-width="1.0028"/>
  <rect x="308.2" y="46.528" width="1097.1" height="102.94" ry="51.472" fill="#f3f3f1" stroke-width="2.8849"/>
  <rect x="2427.7" y="54.114" width="89.517" height="86.309" ry="13.602" fill="#adadad"/>
  <rect x="2607.1" y="54.114" width="89.517" height="86.309" ry="13.602" fill="#41403b"/>
  <rect x="4833.9" y="54.426" width="217.9" height="82.483" rx="23.296" ry="24.387" fill="#41403b"/>
  <rect x="1834.3" y="336.57" width="137.6" height="139.15" rx="23.296" ry="24.387" fill="#adadad"/>
  <path d="m2540.8 391.13h-459.44c-12.906 0-23.295 9.1192-23.295 20.447s10.389 20.447 23.295 20.447h459.44v-40.895z" fill="#adadad"/>
  <path d="m2540.8 391.13v40.895h53.742c12.906 0 23.297-9.1192 23.297-20.447s-10.391-20.447-23.297-20.447h-53.742z" fill="#2c2b28"/>
  <path d="m2540.8 2592.2h-652.36c-10.891 0-19.66 9.1192-19.66 20.447v8.3945c0 11.328 8.7688 20.447 19.66 20.447h652.36v-49.289z" fill="#bfbdba" stroke-width=".91865"/>
  <path d="m2540.8 2592.2v49.289h539.5c10.891 0 19.658-9.1192 19.658-20.447v-8.3945c0-11.328-8.7668-20.447-19.658-20.447h-539.5z" fill="#42403e" stroke-width=".91865"/>
  <path d="m2540.8 562.89h-649.93c-12.234 0-22.084 9.1192-22.084 20.447v8.3945c0 11.328 9.8497 20.447 22.084 20.447h649.93v-49.289z" fill="#bfbdba" stroke-width=".97364"/>
  <path d="m2540.8 562.89v49.289h688.88c12.234 0 22.084-9.1192 22.084-20.447v-8.3945c0-11.328-9.8497-20.447-22.084-20.447h-688.88z" fill="#42403e" stroke-width=".97364"/>
  <path d="m2540.8 688.67h-652.89c-10.595 0-19.125 9.1192-19.125 20.447v8.3945c0 11.328 8.5298 20.449 19.125 20.449h652.89v-49.291z" fill="#bfbdba" stroke-width=".90607"/>
  <path d="m2540.8 688.67v49.291h506.55c10.595 0 19.125-9.1211 19.125-20.449v-8.3945c0-11.328-8.5299-20.447-19.125-20.447h-506.55z" fill="#42403e" stroke-width=".90607"/>
  <path d="m2540.8 814.46h-667.71c-12.906 0-23.295 9.1192-23.295 20.447v1534.6c0 11.328 10.389 20.447 23.295 20.447h667.71v-1575.5z" fill="#bfbdba"/>
  <path d="m2540.8 814.46v1575.5h706.66c12.906 0 23.295-9.1191 23.295-20.447v-1534.6c0-11.328-10.389-20.447-23.295-20.447h-706.66z" fill="#242423"/>
  <path d="m2540.8 2718h-656.72c-8.4753 0-15.299 9.1211-15.299 20.449v8.3926c0 11.328 6.8235 20.449 15.299 20.449h656.72v-49.291z" fill="#bfbdba" stroke-width=".81037"/>
  <path d="m2540.8 2718v49.291h270.74c8.4753 0 15.299-9.1212 15.299-20.449v-8.3926c0-11.328-6.8236-20.449-15.299-20.449h-270.74z" fill="#42403e" stroke-width=".81037"/>
  <path d="m2540.8 2466.4h-649.93c-12.234 0-22.084 9.1192-22.084 20.447v8.3946c0 11.328 9.8497 20.449 22.084 20.449h649.93v-49.291z" fill="#bfbdba" stroke-width=".97364"/>
  <path d="m2540.8 2466.4v49.291h688.88c12.234 0 22.084-9.1211 22.084-20.449v-8.3946c0-11.328-9.8497-20.447-22.084-20.447h-688.88z" fill="#42403e" stroke-width=".97364"/>
  <rect x="65.528" y="78.598" width="183.54" height="43.181" ry="16.928" fill="#f5ac3d"/>
  <rect x="2404.2" y="187.2" width="136.55" height="8.0344" ry="2.6344" fill="#f5ac3d" stroke-width=".85456"/>
 </g>
</svg>
